<svg xmlns="http://www.w3.org/2000/svg" viewBox="0 0 120 120" width="120" height="120">
  <rect width="120" height="120" rx="26" fill="#1c1b1f"/>
  <!-- Display -->
  <rect x="10" y="10" width="100" height="30" rx="8" fill="#2d2c31"/>
  <text x="102" y="32" font-family="system-ui, sans-serif" font-size="18" fill="#e6e0e9" text-anchor="end">0</text>
  <!-- Row 1 -->
  <rect x="10" y="46" width="22" height="14" rx="7" fill="#332d41"/>
  <rect x="35" y="46" width="22" height="14" rx="7" fill="#332d41"/>
  <rect x="60" y="46" width="22" height="14" rx="7" fill="#332d41"/>
  <rect x="85" y="46" width="25" height="14" rx="7" fill="#332d41"/>
  <!-- Row 2 -->
  <rect x="10" y="64" width="22" height="14" rx="7" fill="#2d2c31"/>
  <rect x="35" y="64" width="22" height="14" rx="7" fill="#2d2c31"/>
  <rect x="60" y="64" width="22" height="14" rx="7" fill="#2d2c31"/>
  <rect x="85" y="64" width="25" height="14" rx="7" fill="#332d41"/>
  <!-- Row 3 -->
  <rect x="10" y="82" width="22" height="14" rx="7" fill="#2d2c31"/>
  <rect x="35" y="82" width="22" height="14" rx="7" fill="#2d2c31"/>
  <rect x="60" y="82" width="22" height="14" rx="7" fill="#2d2c31"/>
  <rect x="85" y="82" width="25" height="14" rx="7" fill="#332d41"/>
  <!-- Row 4 -->
  <rect x="10" y="100" width="47" height="14" rx="7" fill="#2d2c31"/>
  <rect x="60" y="100" width="22" height="14" rx="7" fill="#2d2c31"/>
  <rect x="85" y="100" width="25" height="14" rx="7" fill="#d0bcff"/>
</svg>
